<svg width="171" height="142" viewBox="0 0 171 142" fill="none" xmlns="http://www.w3.org/2000/svg">
<g clip-path="url(#clip0)">
<g filter="url(#filter0_d)">
<path d="M146.341 81.3442C146.338 81.3016 134.987 79.3172 123.978 87.4144C128.465 79.3172 134.559 73.8825 144.919 72.782C140.1 54.4401 124.005 40.933 104.798 40.933C89.6401 40.933 76.3941 49.3567 69.1094 61.9231C78.4428 62.3455 88.2823 69.6617 94.435 77.9186C88.6106 73.2399 81.319 70.4249 73.381 70.4249C70.5082 70.4249 67.7311 70.8332 65.0635 71.5254C65.0566 71.4473 65.0327 71.3763 65.0258 71.2946C64.9985 71.3798 64.9642 71.4615 64.9403 71.5502C49.9878 75.4657 38.8999 89.4768 38.8999 106.214C38.8999 125.973 54.3381 142 73.381 142H141.574C157.826 142 171 128.323 171 111.457C171.003 96.2676 160.319 83.7084 146.341 81.3442Z" fill="#7181AA"/>
<path d="M146.341 81.3442C146.338 81.3016 134.987 79.3172 123.978 87.4144C128.465 79.3172 134.559 73.8825 144.919 72.782C140.1 54.4401 124.005 40.933 104.798 40.933C89.6401 40.933 76.3941 49.3567 69.1094 61.9231C78.4428 62.3455 88.2823 69.6617 94.435 77.9186C88.6106 73.2399 81.319 70.4249 73.381 70.4249C70.5082 70.4249 67.7311 70.8332 65.0635 71.5254C65.0566 71.4473 65.0327 71.3763 65.0258 71.2946C64.9985 71.3798 64.9642 71.4615 64.9403 71.5502C49.9878 75.4657 38.8999 89.4768 38.8999 106.214C38.8999 125.973 54.3381 142 73.381 142H141.574C157.826 142 171 128.323 171 111.457C171.003 96.2676 160.319 83.7084 146.341 81.3442Z" fill="url(#paint0_linear)"/>
</g>
<g filter="url(#filter1_d)">
<path d="M42.4191 71.5112C41.5401 69.1434 41.0408 66.5805 41.0408 63.8933C41.0408 52.1504 50.2476 42.5943 61.5612 42.5943C64.1468 42.5943 66.616 43.1126 68.8972 44.0249C72.7379 40.4325 77.0438 37.479 81.6985 35.2426C76.0452 30.9545 69.099 28.3915 61.5646 28.3915C42.679 28.3915 27.3639 44.2876 27.3639 63.8897C27.3639 71.1491 29.4741 77.8938 33.0754 83.5167C35.5139 79.0084 38.6809 74.951 42.4191 71.5112Z" fill="#FFE6CF"/>
<path d="M42.4191 71.5112C41.5401 69.1434 41.0408 66.5805 41.0408 63.8933C41.0408 52.1504 50.2476 42.5943 61.5612 42.5943C64.1468 42.5943 66.616 43.1126 68.8972 44.0249C72.7379 40.4325 77.0438 37.479 81.6985 35.2426C76.0452 30.9545 69.099 28.3915 61.5646 28.3915C42.679 28.3915 27.3639 44.2876 27.3639 63.8897C27.3639 71.1491 29.4741 77.8938 33.0754 83.5167C35.5139 79.0084 38.6809 74.951 42.4191 71.5112Z" fill="url(#paint1_linear)"/>
<path d="M68.4013 10.6495C68.4013 16.5067 65.3233 21.2989 61.5612 21.2989C57.7991 21.2989 54.7211 16.5067 54.7211 10.6495C54.7211 4.79226 57.7991 0 61.5612 0C65.3233 0 68.4013 4.79226 68.4013 10.6495Z" fill="#FFE6CF"/>
<path d="M68.4013 10.6495C68.4013 16.5067 65.3233 21.2989 61.5612 21.2989C57.7991 21.2989 54.7211 16.5067 54.7211 10.6495C54.7211 4.79226 57.7991 0 61.5612 0C65.3233 0 68.4013 4.79226 68.4013 10.6495Z" fill="url(#paint2_linear)"/>
<path d="M10.2602 70.9965C4.61709 70.9965 0 67.8016 0 63.8968C0 59.992 4.61709 56.7972 10.2602 56.7972C15.9033 56.7972 20.5204 59.992 20.5204 63.8968C20.5204 67.8016 15.8999 70.9965 10.2602 70.9965Z" fill="#FFE6CF"/>
<path d="M10.2602 70.9965C4.61709 70.9965 0 67.8016 0 63.8968C0 59.992 4.61709 56.7972 10.2602 56.7972C15.9033 56.7972 20.5204 59.992 20.5204 63.8968C20.5204 67.8016 15.8999 70.9965 10.2602 70.9965Z" fill="url(#paint3_linear)"/>
<path d="M103.495 30.2835C106.771 26.2687 107.547 21.267 105.088 18.7147C102.428 15.9529 96.9862 17.0818 92.9984 21.2244C89.6468 24.7032 88.3745 29.2292 89.6228 32.2324C94.0689 30.9616 98.7202 30.2835 103.495 30.2835Z" fill="#FFE6CF"/>
<path d="M103.495 30.2835C106.771 26.2687 107.547 21.267 105.088 18.7147C102.428 15.9529 96.9862 17.0818 92.9984 21.2244C89.6468 24.7032 88.3745 29.2292 89.6228 32.2324C94.0689 30.9616 98.7202 30.2835 103.495 30.2835Z" fill="url(#paint4_linear)"/>
<path d="M27.3606 106.211C27.3606 101.493 28.0481 96.9137 29.3272 92.5829C26.5911 92.306 23.1881 93.6869 20.4486 96.5268C16.4574 100.669 15.3699 106.314 18.0307 109.075C20.1375 111.266 23.9884 110.975 27.4803 108.713C27.4358 107.879 27.3606 107.056 27.3606 106.211Z" fill="#FFE6CF"/>
<path d="M27.3606 106.211C27.3606 101.493 28.0481 96.9137 29.3272 92.5829C26.5911 92.306 23.1881 93.6869 20.4486 96.5268C16.4574 100.669 15.3699 106.314 18.0307 109.075C20.1375 111.266 23.9884 110.975 27.4803 108.713C27.4358 107.879 27.3606 107.056 27.3606 106.211Z" fill="url(#paint5_linear)"/>
<path d="M30.1206 21.2244C34.1118 25.367 35.1994 31.0113 32.5386 33.773C29.8778 36.5348 24.4364 35.4024 20.4486 31.2633C16.4574 27.1207 15.3699 21.4764 18.0307 18.7147C20.6915 15.9529 26.1328 17.0818 30.1206 21.2244Z" fill="#FFE6CF"/>
<path d="M30.1206 21.2244C34.1118 25.367 35.1994 31.0113 32.5386 33.773C29.8778 36.5348 24.4364 35.4024 20.4486 31.2633C16.4574 27.1207 15.3699 21.4764 18.0307 18.7147C20.6915 15.9529 26.1328 17.0818 30.1206 21.2244Z" fill="url(#paint6_linear)"/>
</g>
</g>
<defs>
<filter id="filter0_d" x="34.8999" y="40.933" width="140.1" height="109.067" filterUnits="userSpaceOnUse" color-interpolation-filters="sRGB">
<feFlood flood-opacity="0" result="BackgroundImageFix"/>
<feColorMatrix in="SourceAlpha" type="matrix" values="0 0 0 0 0 0 0 0 0 0 0 0 0 0 0 0 0 0 127 0"/>
<feOffset dy="4"/>
<feGaussianBlur stdDeviation="2"/>
<feColorMatrix type="matrix" values="0 0 0 0 0 0 0 0 0 0 0 0 0 0 0 0 0 0 0.25 0"/>
<feBlend mode="normal" in2="BackgroundImageFix" result="effect1_dropShadow"/>
<feBlend mode="normal" in="SourceGraphic" in2="effect1_dropShadow" result="shape"/>
</filter>
<filter id="filter1_d" x="-4" y="0" width="114.533" height="118.573" filterUnits="userSpaceOnUse" color-interpolation-filters="sRGB">
<feFlood flood-opacity="0" result="BackgroundImageFix"/>
<feColorMatrix in="SourceAlpha" type="matrix" values="0 0 0 0 0 0 0 0 0 0 0 0 0 0 0 0 0 0 127 0"/>
<feOffset dy="4"/>
<feGaussianBlur stdDeviation="2"/>
<feColorMatrix type="matrix" values="0 0 0 0 0 0 0 0 0 0 0 0 0 0 0 0 0 0 0.25 0"/>
<feBlend mode="normal" in2="BackgroundImageFix" result="effect1_dropShadow"/>
<feBlend mode="normal" in="SourceGraphic" in2="effect1_dropShadow" result="shape"/>
</filter>
<linearGradient id="paint0_linear" x1="104.95" y1="40.933" x2="104.95" y2="142" gradientUnits="userSpaceOnUse">
<stop stop-color="white"/>
<stop offset="1" stop-color="white" stop-opacity="0"/>
</linearGradient>
<linearGradient id="paint1_linear" x1="54.5312" y1="28.3915" x2="54.5312" y2="83.5167" gradientUnits="userSpaceOnUse">
<stop stop-color="white"/>
<stop offset="1" stop-color="white" stop-opacity="0"/>
</linearGradient>
<linearGradient id="paint2_linear" x1="61.5612" y1="0" x2="61.5612" y2="21.2989" gradientUnits="userSpaceOnUse">
<stop stop-color="white"/>
<stop offset="1" stop-color="white" stop-opacity="0"/>
</linearGradient>
<linearGradient id="paint3_linear" x1="10.2602" y1="56.7972" x2="10.2602" y2="70.9965" gradientUnits="userSpaceOnUse">
<stop stop-color="white"/>
<stop offset="1" stop-color="white" stop-opacity="0"/>
</linearGradient>
<linearGradient id="paint4_linear" x1="97.8428" y1="17.2026" x2="97.8428" y2="32.2324" gradientUnits="userSpaceOnUse">
<stop stop-color="white"/>
<stop offset="1" stop-color="white" stop-opacity="0"/>
</linearGradient>
<linearGradient id="paint5_linear" x1="22.9505" y1="92.5481" x2="22.9505" y2="110.573" gradientUnits="userSpaceOnUse">
<stop stop-color="white"/>
<stop offset="1" stop-color="white" stop-opacity="0"/>
</linearGradient>
<linearGradient id="paint6_linear" x1="25.2846" y1="17.2026" x2="25.2846" y2="35.2842" gradientUnits="userSpaceOnUse">
<stop stop-color="white"/>
<stop offset="1" stop-color="white" stop-opacity="0"/>
</linearGradient>
<clipPath id="clip0">
<rect width="171" height="142" fill="white"/>
</clipPath>
</defs>
</svg>
