<svg width="167" height="104" viewBox="0 0 167 104" fill="none" xmlns="http://www.w3.org/2000/svg">
<g clip-path="url(#clip0)">
<path d="M54.3829 41.9886L58.221 36.6846C62.1515 31.2546 67.358 26.7753 73.4185 23.4192C67.5789 9.77849 51.9528 -0.00205994 33.5372 -0.00205994C32.0304 -0.00205994 30.5399 0.0691463 29.0759 0.19517C37.9292 6.03063 43.6204 15.0249 43.6204 25.1397C43.6204 42.7283 26.4578 56.9882 5.28893 56.9882C3.48859 56.9882 1.7311 56.8485 0 56.6512C6.70018 63.8757 16.6878 68.8728 28.1131 70.092C30.2398 57.5279 40.2407 46.8159 54.3829 41.9886Z" fill="#363636"/>
<g filter="url(#filter0_d)">
<path d="M54.3829 41.9886L58.221 36.6846C62.1515 31.2546 67.358 26.7753 73.4185 23.4192C67.5789 9.77849 51.9528 -0.00205994 33.5372 -0.00205994C32.0304 -0.00205994 30.5399 0.0691463 29.0759 0.19517C37.9292 6.03063 43.6204 15.0249 43.6204 25.1397C43.6204 42.7283 26.4578 56.9882 5.28893 56.9882C3.48859 56.9882 1.7311 56.8485 0 56.6512C6.70018 63.8757 16.6878 68.8728 28.1131 70.092C30.2398 57.5279 40.2407 46.8159 54.3829 41.9886Z" fill="#FCFCFC"/>
<path d="M54.3829 41.9886L58.221 36.6846C62.1515 31.2546 67.358 26.7753 73.4185 23.4192C67.5789 9.77849 51.9528 -0.00205994 33.5372 -0.00205994C32.0304 -0.00205994 30.5399 0.0691463 29.0759 0.19517C37.9292 6.03063 43.6204 15.0249 43.6204 25.1397C43.6204 42.7283 26.4578 56.9882 5.28893 56.9882C3.48859 56.9882 1.7311 56.8485 0 56.6512C6.70018 63.8757 16.6878 68.8728 28.1131 70.092C30.2398 57.5279 40.2407 46.8159 54.3829 41.9886Z" fill="url(#paint0_linear)"/>
</g>
<g filter="url(#filter1_d)">
<path d="M143.22 57.1876C143.213 57.1519 132.273 55.6232 121.658 61.8723C125.985 55.6232 131.86 51.4288 141.848 50.5823C137.205 36.4237 121.685 25.9993 103.17 25.9993C88.5564 25.9993 75.7859 32.5005 68.7626 42.1962C77.761 42.5222 87.2507 48.1686 93.1826 54.541C87.5673 50.9302 80.5373 48.7577 72.8809 48.7577C70.1112 48.7577 67.4338 49.0727 64.8619 49.6124C64.8553 49.5549 64.8322 49.4946 64.8256 49.4398C64.7992 49.5001 64.7662 49.5686 64.7431 49.6316C50.3272 52.6562 39.6372 63.4668 39.6372 76.387C39.6372 91.6332 54.5214 104.003 72.8809 104.003H138.63C154.299 104.003 167 93.4469 167 80.4308C166.997 68.705 156.696 59.0149 143.22 57.1876Z" fill="#7181AA"/>
<path d="M143.22 57.1876C143.213 57.1519 132.273 55.6232 121.658 61.8723C125.985 55.6232 131.86 51.4288 141.848 50.5823C137.205 36.4237 121.685 25.9993 103.17 25.9993C88.5564 25.9993 75.7859 32.5005 68.7626 42.1962C77.761 42.5222 87.2507 48.1686 93.1826 54.541C87.5673 50.9302 80.5373 48.7577 72.8809 48.7577C70.1112 48.7577 67.4338 49.0727 64.8619 49.6124C64.8553 49.5549 64.8322 49.4946 64.8256 49.4398C64.7992 49.5001 64.7662 49.5686 64.7431 49.6316C50.3272 52.6562 39.6372 63.4668 39.6372 76.387C39.6372 91.6332 54.5214 104.003 72.8809 104.003H138.63C154.299 104.003 167 93.4469 167 80.4308C166.997 68.705 156.696 59.0149 143.22 57.1876Z" fill="url(#paint1_linear)"/>
</g>
</g>
<defs>
<filter id="filter0_d" x="-4" y="-0.00205994" width="81.4185" height="78.094" filterUnits="userSpaceOnUse" color-interpolation-filters="sRGB">
<feFlood flood-opacity="0" result="BackgroundImageFix"/>
<feColorMatrix in="SourceAlpha" type="matrix" values="0 0 0 0 0 0 0 0 0 0 0 0 0 0 0 0 0 0 127 0"/>
<feOffset dy="4"/>
<feGaussianBlur stdDeviation="2"/>
<feColorMatrix type="matrix" values="0 0 0 0 0 0 0 0 0 0 0 0 0 0 0 0 0 0 0.25 0"/>
<feBlend mode="normal" in2="BackgroundImageFix" result="effect1_dropShadow"/>
<feBlend mode="normal" in="SourceGraphic" in2="effect1_dropShadow" result="shape"/>
</filter>
<filter id="filter1_d" x="35.6372" y="25.9993" width="135.363" height="86.0034" filterUnits="userSpaceOnUse" color-interpolation-filters="sRGB">
<feFlood flood-opacity="0" result="BackgroundImageFix"/>
<feColorMatrix in="SourceAlpha" type="matrix" values="0 0 0 0 0 0 0 0 0 0 0 0 0 0 0 0 0 0 127 0"/>
<feOffset dy="4"/>
<feGaussianBlur stdDeviation="2"/>
<feColorMatrix type="matrix" values="0 0 0 0 0 0 0 0 0 0 0 0 0 0 0 0 0 0 0.25 0"/>
<feBlend mode="normal" in2="BackgroundImageFix" result="effect1_dropShadow"/>
<feBlend mode="normal" in="SourceGraphic" in2="effect1_dropShadow" result="shape"/>
</filter>
<linearGradient id="paint0_linear" x1="36.7092" y1="-0.00205994" x2="36.7092" y2="70.092" gradientUnits="userSpaceOnUse">
<stop stop-color="#7CAEFA"/>
<stop offset="1" stop-color="white" stop-opacity="0"/>
</linearGradient>
<linearGradient id="paint1_linear" x1="103.319" y1="25.9993" x2="103.319" y2="104.003" gradientUnits="userSpaceOnUse">
<stop stop-color="white"/>
<stop offset="1" stop-color="white" stop-opacity="0"/>
</linearGradient>
<clipPath id="clip0">
<rect width="167" height="104" fill="white"/>
</clipPath>
</defs>
</svg>
