<svg xmlns="http://www.w3.org/2000/svg" width="166" height="144" fill="none" viewBox="0 0 166 144"><g clip-path="url(#clip0)"><g filter="url(#filter0_d)"><path fill="#7181AA" d="M135.009 41.5338C135.005 41.49 120.741 39.4505 106.906 47.7726C112.545 39.4505 120.203 33.8648 133.221 32.7337C127.17 13.8823 106.941 0 82.8045 0C63.7569 0 47.1118 8.65773 37.9576 21.5732C49.6861 22.0073 62.0507 29.5268 69.7823 38.013C62.4676 33.2007 53.3048 30.3075 43.3298 30.3075C39.7197 30.3075 36.2299 30.7271 32.8777 31.4385C32.8691 31.3583 32.839 31.2853 32.8304 31.2014C32.796 31.289 32.753 31.3729 32.7229 31.4641C13.9332 35.4883 0 49.8887 0 67.091C0 87.3982 19.4 103.867 43.3298 103.867H129.022C149.445 103.867 166 89.8135 166 72.4761C166 56.8718 152.578 43.9636 135.009 41.5338Z"/><path fill="url(#paint0_linear)" d="M135.009 41.5338C135.005 41.49 120.741 39.4505 106.906 47.7726C112.545 39.4505 120.203 33.8648 133.221 32.7337C127.17 13.8823 106.941 0 82.8045 0C63.7569 0 47.1118 8.65773 37.9576 21.5732C49.6861 22.0073 62.0507 29.5268 69.7823 38.013C62.4676 33.2007 53.3048 30.3075 43.3298 30.3075C39.7197 30.3075 36.2299 30.7271 32.8777 31.4385C32.8691 31.3583 32.839 31.2853 32.8304 31.2014C32.796 31.289 32.753 31.3729 32.7229 31.4641C13.9332 35.4883 0 49.8887 0 67.091C0 87.3982 19.4 103.867 43.3298 103.867H129.022C149.445 103.867 166 89.8135 166 72.4761C166 56.8718 152.578 43.9636 135.009 41.5338Z"/></g><g filter="url(#filter1_d)"><path fill="#CCCBFF" d="M51.779 130.055C51.779 136.1 46.0072 141 38.8858 141C31.7645 141 25.9926 136.1 25.9926 130.055C25.9926 126.406 30.2904 119.109 38.8858 111.813C47.4813 119.109 51.779 126.406 51.779 130.055Z"/><path fill="url(#paint1_linear)" d="M51.779 130.055C51.779 136.1 46.0072 141 38.8858 141C31.7645 141 25.9926 136.1 25.9926 130.055C25.9926 126.406 30.2904 119.109 38.8858 111.813C47.4813 119.109 51.779 126.406 51.779 130.055Z"/><path fill="#CCCBFF" d="M94.7564 130.055C94.7564 136.1 88.9845 141 81.8632 141C74.7418 141 68.97 136.1 68.97 130.055C68.97 126.406 73.2677 119.109 81.8632 111.813C90.4587 119.109 94.7564 126.406 94.7564 130.055Z"/><path fill="url(#paint2_linear)" d="M94.7564 130.055C94.7564 136.1 88.9845 141 81.8632 141C74.7418 141 68.97 136.1 68.97 130.055C68.97 126.406 73.2677 119.109 81.8632 111.813C90.4587 119.109 94.7564 126.406 94.7564 130.055Z"/><path fill="#CCCBFF" d="M137.734 130.055C137.734 136.1 131.962 141 124.84 141C117.719 141 111.947 136.1 111.947 130.055C111.947 126.406 116.245 119.109 124.84 111.813C133.436 119.109 137.734 126.406 137.734 130.055Z"/><path fill="url(#paint3_linear)" d="M137.734 130.055C137.734 136.1 131.962 141 124.84 141C117.719 141 111.947 136.1 111.947 130.055C111.947 126.406 116.245 119.109 124.84 111.813C133.436 119.109 137.734 126.406 137.734 130.055Z"/></g></g><defs><filter id="filter0_d" width="174" height="111.867" x="-4" y="0" color-interpolation-filters="sRGB" filterUnits="userSpaceOnUse"><feFlood flood-opacity="0" result="BackgroundImageFix"/><feColorMatrix in="SourceAlpha" type="matrix" values="0 0 0 0 0 0 0 0 0 0 0 0 0 0 0 0 0 0 127 0"/><feOffset dy="4"/><feGaussianBlur stdDeviation="2"/><feColorMatrix type="matrix" values="0 0 0 0 0 0 0 0 0 0 0 0 0 0 0 0 0 0 0.25 0"/><feBlend in2="BackgroundImageFix" mode="normal" result="effect1_dropShadow"/><feBlend in="SourceGraphic" in2="effect1_dropShadow" mode="normal" result="shape"/></filter><filter id="filter1_d" width="119.741" height="37.188" x="21.993" y="111.813" color-interpolation-filters="sRGB" filterUnits="userSpaceOnUse"><feFlood flood-opacity="0" result="BackgroundImageFix"/><feColorMatrix in="SourceAlpha" type="matrix" values="0 0 0 0 0 0 0 0 0 0 0 0 0 0 0 0 0 0 127 0"/><feOffset dy="4"/><feGaussianBlur stdDeviation="2"/><feColorMatrix type="matrix" values="0 0 0 0 0 0 0 0 0 0 0 0 0 0 0 0 0 0 0.25 0"/><feBlend in2="BackgroundImageFix" mode="normal" result="effect1_dropShadow"/><feBlend in="SourceGraphic" in2="effect1_dropShadow" mode="normal" result="shape"/></filter><linearGradient id="paint0_linear" x1="83" x2="83" y1="0" y2="103.867" gradientUnits="userSpaceOnUse"><stop stop-color="#fff"/><stop offset="1" stop-color="#fff" stop-opacity="0"/></linearGradient><linearGradient id="paint1_linear" x1="38.886" x2="38.886" y1="111.813" y2="141" gradientUnits="userSpaceOnUse"><stop stop-color="#fff"/><stop offset="1" stop-color="#fff" stop-opacity="0"/></linearGradient><linearGradient id="paint2_linear" x1="81.863" x2="81.863" y1="111.813" y2="141" gradientUnits="userSpaceOnUse"><stop stop-color="#fff"/><stop offset="1" stop-color="#fff" stop-opacity="0"/></linearGradient><linearGradient id="paint3_linear" x1="124.84" x2="124.84" y1="111.813" y2="141" gradientUnits="userSpaceOnUse"><stop stop-color="#fff"/><stop offset="1" stop-color="#fff" stop-opacity="0"/></linearGradient><clipPath id="clip0"><rect width="166" height="144" fill="#fff"/></clipPath></defs></svg>