<svg width="112" height="112" viewBox="0 0 112 112" fill="none" xmlns="http://www.w3.org/2000/svg">
<g clip-path="url(#clip0)" filter="url(#filter0_d)">
<path d="M56.0001 10.3316C28.1659 10.3316 5.53801 32.2302 4.10425 59.7533C6.53924 53.1848 22.559 50.5103 30.5688 50.5103C30.5688 39.8124 41.2486 26.44 43.9186 23.7655C38.6081 37.0657 38.5493 55.6774 38.576 61.1093C38.576 61.1253 38.5787 61.136 38.5787 61.1467C38.5787 61.1521 38.5787 61.1628 38.576 61.1681C38.576 61.1815 38.5787 61.2002 38.5787 61.2136H38.7122C38.7122 61.1922 38.5787 61.235 38.5787 61.2136C38.5787 54.169 46.447 48.4001 55.9974 48.4001C65.5265 48.4001 73.256 54.0861 73.2854 61.112C73.3121 55.6748 73.2587 37.0684 67.9482 23.7708C73.2881 29.1198 81.2979 42.4922 81.2979 50.5157C89.3078 50.5157 105.327 53.1902 107.891 59.7587C106.462 32.2302 83.8317 10.3316 56.0001 10.3316Z" fill="#7181AA"/>
<path d="M56.0001 10.3316C28.1659 10.3316 5.53801 32.2302 4.10425 59.7533C6.53924 53.1848 22.559 50.5103 30.5688 50.5103C30.5688 39.8124 41.2486 26.44 43.9186 23.7655C38.6081 37.0657 38.5493 55.6774 38.576 61.1093C38.576 61.1253 38.5787 61.136 38.5787 61.1467C38.5787 61.1521 38.5787 61.1628 38.576 61.1681C38.576 61.1815 38.5787 61.2002 38.5787 61.2136H38.7122C38.7122 61.1922 38.5787 61.235 38.5787 61.2136C38.5787 54.169 46.447 48.4001 55.9974 48.4001C65.5265 48.4001 73.256 54.0861 73.2854 61.112C73.3121 55.6748 73.2587 37.0684 67.9482 23.7708C73.2881 29.1198 81.2979 42.4922 81.2979 50.5157C89.3078 50.5157 105.327 53.1902 107.891 59.7587C106.462 32.2302 83.8317 10.3316 56.0001 10.3316Z" fill="url(#paint0_linear)"/>
<path d="M107.997 61.2076H108L107.997 61.1762V61.2076Z" fill="#7181AA"/>
<path d="M107.997 61.2076H108L107.997 61.1762V61.2076Z" fill="url(#paint1_linear)"/>
<path d="M4.00269 61.1762L4 61.2076H4.00269V61.1762Z" fill="#7181AA"/>
<path d="M4.00269 61.1762L4 61.2076H4.00269V61.1762Z" fill="url(#paint2_linear)"/>
<path d="M51.931 55.8593V90.6276C51.931 93.5802 49.5361 95.9765 46.5911 95.9765C43.6461 95.9765 41.2512 93.5802 41.2512 90.6276V87.9531H33.2413V90.6276C33.2413 98.0145 39.2194 104 46.5911 104C53.9628 104 59.9409 98.0145 59.9409 90.6276V55.8593H51.931Z" fill="#7181AA"/>
<path d="M51.931 55.8593V90.6276C51.931 93.5802 49.5361 95.9765 46.5911 95.9765C43.6461 95.9765 41.2512 93.5802 41.2512 90.6276V87.9531H33.2413V90.6276C33.2413 98.0145 39.2194 104 46.5911 104C53.9628 104 59.9409 98.0145 59.9409 90.6276V55.8593H51.931Z" fill="url(#paint3_linear)"/>
<path d="M56.0001 4.98258C57.9545 4.98258 60.6992 4.86222 62.6109 5.04408C62.3012 2.09145 59.0305 0 56.0001 0C52.9697 0 49.5708 2.0861 49.2611 5.04408C51.1701 4.86222 54.043 4.98258 56.0001 4.98258Z" fill="#7181AA"/>
<path d="M56.0001 4.98258C57.9545 4.98258 60.6992 4.86222 62.6109 5.04408C62.3012 2.09145 59.0305 0 56.0001 0C52.9697 0 49.5708 2.0861 49.2611 5.04408C51.1701 4.86222 54.043 4.98258 56.0001 4.98258Z" fill="url(#paint4_linear)"/>
</g>
<defs>
<filter id="filter0_d" x="0" y="0" width="112" height="112" filterUnits="userSpaceOnUse" color-interpolation-filters="sRGB">
<feFlood flood-opacity="0" result="BackgroundImageFix"/>
<feColorMatrix in="SourceAlpha" type="matrix" values="0 0 0 0 0 0 0 0 0 0 0 0 0 0 0 0 0 0 127 0"/>
<feOffset dy="4"/>
<feGaussianBlur stdDeviation="2"/>
<feColorMatrix type="matrix" values="0 0 0 0 0 0 0 0 0 0 0 0 0 0 0 0 0 0 0.25 0"/>
<feBlend mode="normal" in2="BackgroundImageFix" result="effect1_dropShadow"/>
<feBlend mode="normal" in="SourceGraphic" in2="effect1_dropShadow" result="shape"/>
</filter>
<linearGradient id="paint0_linear" x1="55.9975" y1="10.3316" x2="55.9975" y2="61.2198" gradientUnits="userSpaceOnUse">
<stop stop-color="white"/>
<stop offset="1" stop-color="white" stop-opacity="0"/>
</linearGradient>
<linearGradient id="paint1_linear" x1="107.999" y1="61.1762" x2="107.999" y2="61.2076" gradientUnits="userSpaceOnUse">
<stop stop-color="white"/>
<stop offset="1" stop-color="white" stop-opacity="0"/>
</linearGradient>
<linearGradient id="paint2_linear" x1="4.00134" y1="61.1762" x2="4.00134" y2="61.2076" gradientUnits="userSpaceOnUse">
<stop stop-color="white"/>
<stop offset="1" stop-color="white" stop-opacity="0"/>
</linearGradient>
<linearGradient id="paint3_linear" x1="46.5911" y1="55.8593" x2="46.5911" y2="104" gradientUnits="userSpaceOnUse">
<stop stop-color="white"/>
<stop offset="1" stop-color="white" stop-opacity="0"/>
</linearGradient>
<linearGradient id="paint4_linear" x1="55.936" y1="0" x2="55.936" y2="5.04408" gradientUnits="userSpaceOnUse">
<stop stop-color="white"/>
<stop offset="1" stop-color="white" stop-opacity="0"/>
</linearGradient>
<clipPath id="clip0">
<rect width="104" height="104" fill="white" transform="translate(4)"/>
</clipPath>
</defs>
</svg>
