<svg height="512" width="512" xmlns="http://www.w3.org/2000/svg"><path d="M303.38 12.414A160.513 160.513 0 00263.878 7.5c-69.776 0-129.126 44.596-151.133 106.835v.007C55.395 115.102 7.5 161.952 7.5 221.195c0 59.01 47.837 106.847 106.847 106.847h227.356z" fill="#d4d4d5"/><path d="M424.126 167.767C424.122 92.72 372.671 29.988 303.38 12.414c-69.387 17.617-120.719 80.491-120.719 155.359 0 88.107 71.092 159.6 159.042 160.269h82.662c44.258 0 80.135-35.878 80.135-80.136 0-44.837-36.644-80.373-80.374-80.139z" fill="#efedee"/><ellipse cx="197.331" cy="201.805" fill="#ff8e9e" rx="29.212" ry="23.263" transform="translate(.633 -.617)"/><ellipse cx="355.669" cy="202.301" fill="#ff8e9e" rx="29.212" ry="23.263" transform="rotate(-180 355.655 202.325)"/><path d="M254.016 360.596l-.035-.035c-3.431-3.372-8.978-3.358-12.389.035-21.107 20.991-50.348 58.073-50.348 87.705v.002h.035c0 31.93 25.438 56.197 56.523 56.197 31.231.002 56.526-25.165 56.526-56.198h.035c-.001-30.253-28.909-66.384-50.347-87.706z" fill="#b9f0ff"/><path d="M119.818 387.841l-.021-.021c-2.109-2.072-5.517-2.064-7.613.021-12.97 12.899-30.939 35.687-30.939 53.896v.001h.021c0 19.621 15.632 34.533 34.734 34.533 19.192.001 34.736-15.464 34.736-34.534h.021c-.001-18.591-17.765-40.794-30.939-53.896zm273.125-27.881l-.026-.026c-2.577-2.533-6.743-2.522-9.305.026-15.852 15.766-37.815 43.617-37.815 65.872v.002h.026c0 23.982 19.106 42.208 42.453 42.208 23.457.002 42.455-18.901 42.455-42.208h.026c-.001-22.723-21.713-49.86-37.814-65.874z" fill="#7ce3ff"/><path d="M431.472 160.537C427.668 71.371 353.947 0 263.877 0 194.618 0 132.4 42.802 107.456 107.029 48.539 110.467 0 159.398 0 221.195c0 45.752 27.16 87 69.193 105.084a7.501 7.501 0 005.928-13.78A99.306 99.306 0 0115 221.195c0-64.643 61.757-113.095 125.336-95.916a7.508 7.508 0 001.961.262 7.5 7.5 0 001.952-14.742 114.215 114.215 0 00-20.661-3.566C147.577 51.665 202.707 15 263.877 15c81.832 0 148.836 64.699 152.576 145.639a87.238 87.238 0 00-4.846.555 7.499 7.499 0 00-6.338 8.504 7.498 7.498 0 008.504 6.338c44.419-6.481 83.227 28.018 83.227 71.87 0 40.051-32.584 72.636-72.636 72.636H114.348c-4.153 0-8.331-.259-12.417-.768a7.5 7.5 0 10-1.854 14.885c4.698.585 9.499.882 14.27.883h310.017c48.322 0 87.636-39.313 87.636-87.636 0-45.992-35.531-83.823-80.528-87.369z"/><path d="M219.5 177.042v-10a7.5 7.5 0 00-15 0v10a7.5 7.5 0 0015 0zm128 0v-10a7.5 7.5 0 00-15 0v10a7.5 7.5 0 0015 0zm-71 20.5c9.687 0 18.623-5.599 22.766-14.265a7.499 7.499 0 00-3.531-10.001 7.497 7.497 0 00-10.001 3.531c-1.666 3.484-5.291 5.735-9.234 5.735s-7.568-2.251-9.234-5.735a7.5 7.5 0 00-13.532 6.47c4.143 8.666 13.079 14.265 22.766 14.265zm27.908 257.703a7.498 7.498 0 00-9.155 5.356C289.643 482.032 270.13 497 247.802 497c-27.49 0-49.023-21.39-49.023-48.697 0-.223-.01-.442-.029-.66.44-25.414 26.116-59.835 48.133-81.73a1.329 1.329 0 011.845.001c11.322 11.261 38.489 40.521 46.188 68.95a7.5 7.5 0 0014.479-3.922c-8.648-31.93-37.91-63.551-50.156-75.73-6.355-6.246-16.598-6.24-22.935.066-12.33 12.262-52.56 55.21-52.56 93.025 0 .258.013.514.039.766C184.18 484.42 212.157 512 247.802 512c29.145 0 54.625-19.574 61.962-47.6a7.5 7.5 0 00-5.356-9.155zM125.053 382.47c-5.022-4.935-13.167-4.91-18.159.053-7.777 7.734-33.151 34.861-33.151 59.215 0 .21.009.419.026.625.324 23.271 18.756 41.408 42.229 41.408h.003c11.274 0 21.876-4.367 29.851-12.297 7.835-7.792 12.216-18.107 12.378-29.106a7.73 7.73 0 00.026-.63c0-23.659-23.127-49.24-33.115-59.178a2.5 2.5 0 00-.088-.09zm18.182 59.267c0 7.213-2.827 13.997-7.959 19.101-5.145 5.116-11.989 7.934-19.274 7.934H116c-15.271 0-27.234-11.875-27.234-27.033 0-.165-.005-.328-.016-.49.322-14.183 14.5-33.55 27.252-46.605 13.289 13.575 26.938 32.422 27.25 46.6a6.689 6.689 0 00-.017.493zm254.938-87.153c-5.49-5.394-14.395-5.367-19.851.058-9.39 9.338-40.025 42.07-40.025 71.192 0 .225.01.448.029.668.348 27.554 22.162 49.039 49.948 49.039h.005c27.658 0 49.584-22.154 49.946-49.022.021-.226.031-.455.031-.687 0-28.325-27.991-59.222-40.025-71.191-.019-.017-.046-.045-.058-.057zm25.057 71.249c0 19.174-15.617 34.708-34.952 34.708h-.003c-19.6 0-34.953-15.246-34.953-34.708 0-.184-.007-.367-.02-.548.364-18.279 18.854-43.19 34.975-59.386 16.855 16.921 34.613 41.118 34.974 59.37a7.592 7.592 0 00-.021.564z"/></svg>